<svg width="392" height="236" viewBox="0 0 392 236" fill="none" xmlns="http://www.w3.org/2000/svg">
<path d="M6.21587 6.21587H323.225C357.555 6.21587 385.384 34.0453 385.384 68.3746V229.688H6.21587V6.21587Z" stroke="#EE7709" stroke-width="12.4317"/>
<g filter="url(#filter0_bd_102_7)">
<path d="M82.5424 121.913H117.343V135.079H66.1529V55.5356H82.5424V121.913ZM160.01 135.079C159.282 133.659 158.754 131.893 158.426 129.78C154.602 134.041 149.63 136.172 143.511 136.172C137.72 136.172 132.913 134.497 129.089 131.146C125.301 127.795 123.407 123.57 123.407 118.471C123.407 112.207 125.72 107.399 130.345 104.049C135.007 100.698 141.727 99.0042 150.504 98.9678H157.77V95.5807C157.77 92.8491 157.06 90.6638 155.64 89.0248C154.256 87.3859 152.052 86.5664 149.029 86.5664C146.37 86.5664 144.276 87.2038 142.747 88.4785C141.253 89.7533 140.507 91.5015 140.507 93.7232H124.718C124.718 90.2996 125.774 87.131 127.887 84.2173C129.999 81.3036 132.986 79.0272 136.846 77.3883C140.707 75.7129 145.041 74.8752 149.849 74.8752C157.133 74.8752 162.906 76.7145 167.167 80.393C171.465 84.0352 173.613 89.1705 173.613 95.7992V121.421C173.65 127.03 174.433 131.273 175.963 134.151V135.079H160.01ZM146.953 124.098C149.284 124.098 151.433 123.589 153.4 122.569C155.366 121.512 156.823 120.11 157.77 118.362V108.201H151.87C143.967 108.201 139.76 110.932 139.25 116.395L139.195 117.324C139.195 119.291 139.887 120.912 141.271 122.186C142.655 123.461 144.549 124.098 146.953 124.098ZM237.15 113.609L244.908 75.9679H260.15L245.072 135.079H231.851L220.651 97.8752L209.452 135.079H196.286L181.207 75.9679H196.449L204.153 113.554L214.97 75.9679H226.388L237.15 113.609Z" fill="#EE7709"/>
<path d="M82.5424 121.913H79.4345V125.021H82.5424V121.913ZM117.343 121.913H120.451V118.805H117.343V121.913ZM117.343 135.079V138.187H120.451V135.079H117.343ZM66.1529 135.079H63.045V138.187H66.1529V135.079ZM66.1529 55.5356V52.4277H63.045V55.5356H66.1529ZM82.5424 55.5356H85.6503V52.4277H82.5424V55.5356ZM82.5424 125.021H117.343V118.805H82.5424V125.021ZM114.235 121.913V135.079H120.451V121.913H114.235ZM117.343 131.971H66.1529V138.187H117.343V131.971ZM69.2608 135.079V55.5356H63.045V135.079H69.2608ZM66.1529 58.6436H82.5424V52.4277H66.1529V58.6436ZM79.4345 55.5356V121.913H85.6503V55.5356H79.4345ZM160.01 135.079L157.245 136.498L158.111 138.187H160.01V135.079ZM158.426 129.78L161.497 129.304L160.492 122.825L156.113 127.704L158.426 129.78ZM129.089 131.146L127.029 133.474L127.035 133.479L127.04 133.483L129.089 131.146ZM130.345 104.049L128.531 101.525L128.522 101.532L130.345 104.049ZM150.504 98.9678V95.8599L150.491 95.8599L150.504 98.9678ZM157.77 98.9678V102.076H160.878V98.9678H157.77ZM155.64 89.0248L153.265 91.03L153.278 91.0453L153.291 91.0603L155.64 89.0248ZM142.747 88.4785L140.757 86.0909L140.743 86.1028L140.729 86.1147L142.747 88.4785ZM140.507 93.7232V96.8311H143.615V93.7232H140.507ZM124.718 93.7232H121.61V96.8311H124.718V93.7232ZM136.846 77.3883L138.061 80.2491L138.072 80.2443L138.084 80.2393L136.846 77.3883ZM167.167 80.393L165.136 82.7457L165.147 82.7549L165.158 82.7641L167.167 80.393ZM173.613 121.421H170.506V121.432L170.506 121.442L173.613 121.421ZM175.963 134.151H179.071V133.376L178.707 132.692L175.963 134.151ZM175.963 135.079V138.187H179.071V135.079H175.963ZM153.4 122.569L154.83 125.328L154.85 125.317L154.87 125.307L153.4 122.569ZM157.77 118.362L160.503 119.842L160.878 119.15V118.362H157.77ZM157.77 108.201H160.878V105.093H157.77V108.201ZM139.25 116.395L136.156 116.107L136.151 116.16L136.148 116.213L139.25 116.395ZM139.195 117.324L136.093 117.142L136.088 117.233V117.324H139.195ZM141.271 122.186L143.377 119.9L141.271 122.186ZM162.776 133.661C162.24 132.617 161.79 131.192 161.497 129.304L155.355 130.257C155.717 132.593 156.323 134.701 157.245 136.498L162.776 133.661ZM156.113 127.704C152.922 131.26 148.816 133.064 143.511 133.064V139.28C150.444 139.28 156.281 136.823 160.739 131.856L156.113 127.704ZM143.511 133.064C138.362 133.064 134.316 131.594 131.137 128.808L127.04 133.483C131.51 137.4 137.079 139.28 143.511 139.28V133.064ZM131.148 128.818C128.033 126.063 126.515 122.688 126.515 118.471H120.299C120.299 124.452 122.568 129.527 127.029 133.474L131.148 128.818ZM126.515 118.471C126.515 113.091 128.437 109.269 132.168 106.565L128.522 101.532C123.003 105.53 120.299 111.323 120.299 118.471H126.515ZM132.159 106.572C136.085 103.751 142.065 102.111 150.517 102.076L150.491 95.8599C141.388 95.8977 133.929 97.6451 128.531 101.525L132.159 106.572ZM150.504 102.076H157.77V95.8599H150.504V102.076ZM160.878 98.9678V95.5807H154.662V98.9678H160.878ZM160.878 95.5807C160.878 92.3015 160.015 89.3282 157.988 86.9894L153.291 91.0603C154.105 91.9994 154.662 93.3966 154.662 95.5807H160.878ZM158.014 87.0197C155.827 84.4302 152.578 83.4585 149.029 83.4585V89.6744C151.527 89.6744 152.684 90.3416 153.265 91.03L158.014 87.0197ZM149.029 83.4585C145.889 83.4585 143.008 84.2148 140.757 86.0909L144.736 90.8661C145.544 90.1928 146.852 89.6744 149.029 89.6744V83.4585ZM140.729 86.1147C138.448 88.0617 137.399 90.7259 137.399 93.7232H143.615C143.615 92.2771 144.059 91.4449 144.764 90.8423L140.729 86.1147ZM140.507 90.6152H124.718V96.8311H140.507V90.6152ZM127.826 93.7232C127.826 90.9897 128.654 88.4536 130.403 86.0415L125.37 82.393C122.894 85.8083 121.61 89.6095 121.61 93.7232H127.826ZM130.403 86.0415C132.132 83.6563 134.633 81.7043 138.061 80.2491L135.632 74.5275C131.338 76.3502 127.866 78.9508 125.37 82.393L130.403 86.0415ZM138.084 80.2393C141.502 78.7559 145.406 77.9832 149.849 77.9832V71.7673C144.676 71.7673 139.912 72.67 135.609 74.5372L138.084 80.2393ZM149.849 77.9832C156.611 77.9832 161.588 79.6831 165.136 82.7457L169.198 78.0404C164.223 73.7459 157.655 71.7673 149.849 71.7673V77.9832ZM165.158 82.7641C168.633 85.7092 170.506 89.9053 170.506 95.7992H176.721C176.721 88.4358 174.296 82.3611 169.176 78.022L165.158 82.7641ZM170.506 95.7992V121.421H176.721V95.7992H170.506ZM170.506 121.442C170.543 127.238 171.34 132.077 173.218 135.61L178.707 132.692C177.526 130.47 176.757 126.822 176.721 121.401L170.506 121.442ZM172.855 134.151V135.079H179.071V134.151H172.855ZM175.963 131.971H160.01V138.187H175.963V131.971ZM146.953 127.206C149.755 127.206 152.398 126.589 154.83 125.328L151.969 119.81C150.468 120.588 148.813 120.99 146.953 120.99V127.206ZM154.87 125.307C157.304 124 159.232 122.188 160.503 119.842L155.037 116.882C154.414 118.033 153.429 119.025 151.929 119.831L154.87 125.307ZM160.878 118.362V108.201H154.662V118.362H160.878ZM157.77 105.093H151.87V111.309H157.77V105.093ZM151.87 105.093C147.635 105.093 143.915 105.812 141.095 107.643C138.113 109.579 136.489 112.53 136.156 116.107L142.345 116.684C142.521 114.797 143.256 113.651 144.48 112.856C145.867 111.955 148.202 111.309 151.87 111.309V105.093ZM136.148 116.213L136.093 117.142L142.298 117.507L142.353 116.578L136.148 116.213ZM136.088 117.324C136.088 120.115 137.111 122.58 139.166 124.472L143.377 119.9C142.664 119.243 142.303 118.467 142.303 117.324H136.088ZM139.166 124.472C141.27 126.41 143.993 127.206 146.953 127.206V120.99C145.105 120.99 144.041 120.512 143.377 119.9L139.166 124.472ZM237.15 113.609L234.162 114.464L240.194 114.236L237.15 113.609ZM244.908 75.9679V72.8599H242.375L241.864 75.3405L244.908 75.9679ZM260.15 75.9679L263.162 76.7361L264.15 72.8599H260.15V75.9679ZM245.072 135.079V138.187H247.486L248.083 135.848L245.072 135.079ZM231.851 135.079L228.875 135.975L229.541 138.187H231.851V135.079ZM220.651 97.8752L223.627 96.9793L220.651 87.0931L217.675 96.9793L220.651 97.8752ZM209.452 135.079V138.187H211.762L212.428 135.975L209.452 135.079ZM196.286 135.079L193.274 135.848L193.871 138.187H196.286V135.079ZM181.207 75.9679V72.8599H177.207L178.196 76.7361L181.207 75.9679ZM196.449 75.9679L199.494 75.3439L198.985 72.8599H196.449V75.9679ZM204.153 113.554L201.108 114.178L207.139 114.414L204.153 113.554ZM214.97 75.9679V72.8599H212.63L211.983 75.1083L214.97 75.9679ZM226.388 75.9679L229.376 75.1135L228.732 72.8599H226.388V75.9679ZM240.194 114.236L247.952 76.5952L241.864 75.3405L234.106 112.982L240.194 114.236ZM244.908 79.0758H260.15V72.8599H244.908V79.0758ZM257.139 75.1997L242.06 134.311L248.083 135.848L263.162 76.7361L257.139 75.1997ZM245.072 131.971H231.851V138.187H245.072V131.971ZM234.827 134.184L223.627 96.9793L217.675 98.771L228.875 135.975L234.827 134.184ZM217.675 96.9793L206.476 134.184L212.428 135.975L223.627 98.771L217.675 96.9793ZM209.452 131.971H196.286V138.187H209.452V131.971ZM199.297 134.311L184.219 75.1997L178.196 76.7361L193.274 135.848L199.297 134.311ZM181.207 79.0758H196.449V72.8599H181.207V79.0758ZM193.405 76.5919L201.108 114.178L207.197 112.931L199.494 75.3439L193.405 76.5919ZM207.139 114.414L217.956 76.8274L211.983 75.1083L201.166 112.695L207.139 114.414ZM214.97 79.0758H226.388V72.8599H214.97V79.0758ZM223.399 76.8223L234.162 114.464L240.138 112.755L229.376 75.1135L223.399 76.8223Z" fill="black"/>
</g>
<path d="M244.857 145.403H254.98V179.416C254.98 182.543 254.283 185.31 252.888 187.717C251.516 190.102 249.57 191.946 247.051 193.251C244.531 194.556 241.685 195.208 238.514 195.208C233.317 195.208 229.268 193.892 226.366 191.26C223.464 188.606 222.013 184.86 222.013 180.024H232.204C232.204 182.431 232.71 184.208 233.722 185.355C234.734 186.502 236.332 187.076 238.514 187.076C240.448 187.076 241.989 186.412 243.136 185.085C244.284 183.758 244.857 181.868 244.857 179.416V145.403ZM261.493 175.941C261.493 172.319 262.19 169.091 263.585 166.257C264.979 163.422 266.982 161.229 269.591 159.677C272.223 158.125 275.271 157.348 278.735 157.348C283.662 157.348 287.677 158.856 290.782 161.87C293.909 164.884 295.652 168.979 296.012 174.153L296.079 176.649C296.079 182.251 294.516 186.75 291.389 190.147C288.262 193.521 284.067 195.208 278.803 195.208C273.539 195.208 269.332 193.521 266.183 190.147C263.056 186.772 261.493 182.183 261.493 176.38V175.941ZM271.244 176.649C271.244 180.114 271.897 182.768 273.202 184.613C274.506 186.435 276.373 187.346 278.803 187.346C281.165 187.346 283.01 186.446 284.337 184.647C285.664 182.824 286.328 179.923 286.328 175.941C286.328 172.544 285.664 169.912 284.337 168.045C283.01 166.178 281.142 165.244 278.735 165.244C276.351 165.244 274.506 166.178 273.202 168.045C271.897 169.89 271.244 172.758 271.244 176.649ZM334.985 176.616C334.985 182.465 333.737 187.031 331.24 190.315C328.743 193.577 325.256 195.208 320.779 195.208C316.82 195.208 313.66 193.69 311.297 190.653L310.859 194.533H302.086V142.704H311.837V161.296C314.087 158.664 317.045 157.348 320.712 157.348C325.166 157.348 328.653 158.991 331.172 162.275C333.714 165.537 334.985 170.137 334.985 176.076V176.616ZM325.233 175.907C325.233 172.218 324.649 169.53 323.479 167.843C322.309 166.133 320.566 165.278 318.249 165.278C315.144 165.278 313.007 166.549 311.837 169.091V183.499C313.03 186.064 315.189 187.346 318.316 187.346C321.465 187.346 323.535 185.794 324.525 182.69C324.997 181.205 325.233 178.944 325.233 175.907Z" fill="#EE7709"/>
<defs>
<filter id="filter0_bd_102_7" x="53.7212" y="43.1039" width="218.861" height="117.932" filterUnits="userSpaceOnUse" color-interpolation-filters="sRGB">
<feFlood flood-opacity="0" result="BackgroundImageFix"/>
<feGaussianBlur in="BackgroundImage" stdDeviation="6.21587"/>
<feComposite in2="SourceAlpha" operator="in" result="effect1_backgroundBlur_102_7"/>
<feColorMatrix in="SourceAlpha" type="matrix" values="0 0 0 0 0 0 0 0 0 0 0 0 0 0 0 0 0 0 127 0" result="hardAlpha"/>
<feOffset dy="12.4317"/>
<feGaussianBlur stdDeviation="6.21587"/>
<feComposite in2="hardAlpha" operator="out"/>
<feColorMatrix type="matrix" values="0 0 0 0 0 0 0 0 0 0 0 0 0 0 0 0 0 0 0.25 0"/>
<feBlend mode="normal" in2="effect1_backgroundBlur_102_7" result="effect2_dropShadow_102_7"/>
<feBlend mode="normal" in="SourceGraphic" in2="effect2_dropShadow_102_7" result="shape"/>
</filter>
</defs>
</svg>
